<svg xmlns="http://www.w3.org/2000/svg" version="1.1" xmlns:xlink="http://www.w3.org/1999/xlink" xmlns:svgjs="http://svgjs.dev/svgjs" width="100%" height="100%" viewBox="0 0 1000 600"><rect width="1000" height="600" x="0" y="0" fill="#e2d3f4"/><g><rect width="333.3333333333333" height="333.3333333333333" rx="13.333333333333334" ry="13.333333333333334" y="213.9788773122355" fill="#013dc4" transform="matrix(0.6518678656197312,0,0,0.6518678656197312,0,51.869403685314865)" x="191.75665283203125"/><path d="M344.7622091534813 427.5976400784042L344.7622091534813 427.5976400784042Q346.32244122435975 426.8356662763473 349.37033643258735 426.8356662763473Q352.41823164081507 426.8356662763473 354.74043751375035 429.2667255495765Q357.0263589199211 431.661500356041 357.0263589199211 434.7456800310333L357.0263589199211 434.7456800310333Q357.0263589199211 440.333487912784 352.1642403734627 442.90968505307166L352.1642403734627 442.90968505307166Q342.47628774731055 448.49749293482233 331.3732409173385 452.08965514451916Q320.27019408736635 455.6455328874514 304.59530444505276 455.6455328874514Q288.8841303359746 455.6455328874514 275.49516209983176 450.5657075404053Q262.1061938636889 445.4495977265946 252.41824123753676 435.76164510044254L252.41824123753676 435.76164510044254Q231.48210391435407 415.3334903119644 231.48210391435407 380.6455400849927L231.48210391435407 380.6455400849927Q231.48210391435407 346.2115811253733 252.41824123753676 325.5294350695429L252.41824123753676 325.5294350695429Q272.55612029189797 305.64554728253404 304.70415784534663 305.64554728253404L304.70415784534663 305.64554728253404Q320.27019408736635 305.64554728253404 331.3732409173385 309.4554162928186Q342.47628774731055 313.30156976986774 348.3543713631782 316.49460284515385Q354.1961705122811 319.68763592043996 355.6112647161011 321.57442819219995Q357.0263589199211 323.49750493072446 357.0263589199211 326.5454001389521Q357.0263589199211 329.6295798139444 354.74043751375035 332.06063908717357Q352.41823164081507 334.45541389363814 349.4791898328812 334.45541389363814Q346.57643249171207 334.45541389363814 344.7622091534813 333.69344009158124L344.7622091534813 333.69344009158124Q336.3442128640907 329.1215972792398 327.5633719070539 326.4365467386583Q318.74624648325255 323.75149619807684 305.75640738152043 323.75149619807684Q292.7302838130238 323.75149619807684 282.13521951775624 328.2144856101244Q271.54015522248875 332.677475022172 264.39211526985963 340.3334975095057L264.39211526985963 340.3334975095057Q250.38631109871835 355.6455424841732 250.64030236607064 380.6455400849927L250.64030236607064 380.6455400849927Q250.64030236607064 405.64553768581226 264.39211526985963 420.9575826604797L264.39211526985963 420.9575826604797Q279.7041602445271 437.5395839719086 306.51838118357733 437.5395839719086L306.51838118357733 437.5395839719086Q318.74624648325255 437.5395839719086 327.5633719070539 434.8545334313272Q336.3442128640907 432.16948289074566 344.7622091534813 427.5976400784042ZM429.74043031620903 437.793575239261L429.74043031620903 437.793575239261Q466.2063194146469 437.793575239261 466.4603106819992 413.5555514404983L466.4603106819992 413.5555514404983Q466.4603106819992 403.6136075469938 452.45450651085787 397.73552393112624L452.45450651085787 397.73552393112624Q446.32243162763797 395.1956112576032 438.2672800058935 393.16368111878484Q430.2484128509136 391.09546651320176 422.0844078288753 388.80954510703106Q413.92040280683705 386.5236237008603 405.75639778479865 383.5845818929265Q397.59239276276037 380.6455400849927 391.4603178795405 376.0374128058866L391.4603178795405 376.0374128058866Q377.6722205089869 365.5874863776776 377.41822924163455 348.49750253154406L377.41822924163455 348.49750253154406Q377.41822924163455 330.137562348649 391.4603178795405 318.3813951169138L391.4603178795405 318.3813951169138Q406.51837158685555 305.64554728253404 431.77236045502747 305.64554728253404L431.77236045502747 305.64554728253404Q454.7404279170286 305.64554728253404 473.1003680999236 312.53959596781084L473.1003680999236 312.53959596781084Q478.97845171579127 314.5715261066293 479.2324429831435 320.95759225720144L479.2324429831435 320.95759225720144Q479.2324429831435 324.0054874654291 477.05537497726664 326.79939140630444Q474.87830697138975 329.6295798139444 472.19325643080833 329.6295798139444Q469.54449035699145 329.6295798139444 464.9363630778853 328.10563220983056L464.9363630778853 328.10563220983056Q451.14826570733175 323.2435136633722 433.80429059384585 323.2435136633722L433.80429059384585 323.2435136633722Q417.73027181712155 323.2435136633722 407.2803453889125 329.37558854659204L407.2803453889125 329.37558854659204Q396.57642769335115 335.76165469716426 396.57642769335115 346.97355492743026L396.57642769335115 346.97355492743026Q396.57642769335115 358.6934376924008 410.32824059714017 365.079503842973L410.32824059714017 365.079503842973Q416.7143067477123 367.87340778384834 424.62432050239835 369.7964845223729Q432.53433425708437 371.7195612608975 440.95233054647497 373.7514913997159Q449.3703268358656 375.78342153853436 457.17148719025784 378.72246334646815Q464.9363630778853 381.66150515440194 471.3224292284575 386.0156411661557L471.3224292284575 386.0156411661557Q485.1105265990111 395.9575850596601 485.3645178663635 415.0794990446121L485.3645178663635 415.0794990446121Q485.3645178663635 432.93145669280256 470.814446693753 444.17964138983314L470.814446693753 444.17964138983314Q456.0103842537901 455.6455328874514 431.77236045502747 455.6455328874514L431.77236045502747 455.6455328874514Q405.24841525009407 455.6455328874514 382.02635652074065 445.703588993947L382.02635652074065 445.703588993947Q379.74043511456995 444.6876239245377 377.9262117763392 442.25656465130857Q376.14827290487307 439.82550537807936 376.14827290487307 436.7776101698517Q376.14827290487307 433.7297149616241 378.43419431104377 431.04466442104257Q380.75640018397917 428.3596138804611 383.69544199191296 428.3596138804611Q386.5981993330821 428.3596138804611 391.0611887451297 430.39154401927954Q395.56046262394193 432.4234741580979 405.75639778479865 435.10852469867945Q415.9523329456554 437.793575239261 429.74043031620903 437.793575239261Z " fill="#e2d3f4" transform="matrix(0.6518678656197312,0,0,0.6518678656197312,0,51.869403685314865)"/><path d="M691.7803799066451 399.52235895028866L691.7803799066451 399.52235895028866Q692.9284752300696 398.9616612341976 695.1712660944339 398.9616612341976Q697.4140569587983 398.9616612341976 699.1228499983139 400.75055394744055Q700.8049431465871 402.5127467694411 700.8049431465871 404.78223752504783L700.8049431465871 404.78223752504783Q700.8049431465871 408.8940207763824 697.2271577201011 410.78971305459504L697.2271577201011 410.78971305459504Q690.0982867583718 414.9014963059296 681.9281200381876 417.5447855389304Q673.7579533180033 420.1613748806887 662.2236003012727 420.1613748806887Q650.6625473932995 420.1613748806887 640.8102875248421 416.42339010674823Q630.9580276563846 412.6587054415653 623.8291566946552 405.5298344798359L623.8291566946552 405.5298344798359Q608.4233194477719 390.4977957103466 608.4233194477719 364.9726996825815L608.4233194477719 364.9726996825815Q608.4233194477719 339.6345028935134 623.8291566946552 324.4155648853271L623.8291566946552 324.4155648853271Q638.647596334205 309.78402448447423 662.303699975 309.78402448447423L662.303699975 309.78402448447423Q673.7579533180033 309.78402448447423 681.9281200381876 312.5875130649296Q690.0982867583718 315.4177015366274 694.4236691396458 317.7672919659615Q698.7223516296774 320.1168823952955 699.7636473881322 321.50527673990194Q700.8049431465871 322.92037097575087 700.8049431465871 325.16316184011515Q700.8049431465871 327.4326525957219 699.1228499983139 329.22154530896483Q697.4140569587983 330.9837381309654 695.2513657681612 330.9837381309654Q693.1153744687666 330.9837381309654 691.7803799066451 330.4230404148743L691.7803799066451 330.4230404148743Q685.5860051384008 327.0588541183278 679.1246314577322 325.0830621663879Q672.6365578858212 323.1072702144479 663.0779968210304 323.1072702144479Q653.4927358649973 323.1072702144479 645.6963676222072 326.39135683726704Q637.899999379417 329.6754434600862 632.6401208046578 335.3091205122394L632.6401208046578 335.3091205122394Q622.333962785079 346.57647461654574 622.5208620237761 364.9726996825815L622.5208620237761 364.9726996825815Q622.5208620237761 383.36892474861725 632.6401208046578 394.63627885292357L632.6401208046578 394.63627885292357Q643.9074749089642 406.8381291507151 663.6386945371215 406.8381291507151L663.6386945371215 406.8381291507151Q672.6365578858212 406.8381291507151 679.1246314577322 404.8623371987751Q685.5860051384008 402.88654524683517 691.7803799066451 399.52235895028866ZM753.75082748033 338.70000670002827L753.75082748033 338.70000670002827Q771.5863548302747 338.70000670002827 782.4532105659446 349.96736080433465L782.4532105659446 349.96736080433465Q793.3467661928569 361.3949142560956 792.9729677154628 379.4173408447373L792.9729677154628 379.4173408447373Q792.9729677154628 397.626666672076 782.4532105659446 408.8940207763824L782.4532105659446 408.8940207763824Q771.5863548302747 420.1613748806887 753.75082748033 420.1613748806887L753.75082748033 420.1613748806887Q735.7284008916884 420.1613748806887 725.20864374217 408.8940207763824L725.20864374217 408.8940207763824Q714.3150881152577 397.626666672076 714.3150881152577 379.4173408447373L714.3150881152577 379.4173408447373Q714.3150881152577 361.0211157787015 725.20864374217 349.96736080433465L725.20864374217 349.96736080433465Q735.7284008916884 338.70000670002827 753.75082748033 338.70000670002827ZM736.5560975202037 401.1243524248346Q740.2139826204169 404.40843904765376 744.8330638053577 405.90363295722995Q749.425445099056 407.39882686680613 753.75082748033 407.39882686680613Q758.0495099703616 407.39882686680613 762.5617915903326 405.90363295722995Q767.0740732103036 404.40843904765376 770.8120579842441 401.0175528598649L770.8120579842441 401.0175528598649Q779.0890242693981 393.51488342074146 779.0890242693981 379.23044160604024L779.0890242693981 379.23044160604024Q779.0890242693981 365.3464981599755 770.8120579842441 357.6569294821551L770.8120579842441 357.6569294821551Q763.8700862612118 351.2756554752138 753.75082748033 351.46255471391083L753.75082748033 351.46255471391083Q737.0366955625675 351.46255471391083 730.6554215556262 366.4678935921577L730.6554215556262 366.4678935921577Q728.3859308000194 371.91467140561383 728.3859308000194 379.4173408447373Q728.3859308000194 386.94671017510314 730.6554215556262 392.3934879885593Q732.8982124199905 397.84026580201544 736.5560975202037 401.1243524248346ZM871.2570488382739 412.47180620286827L871.2570488382739 408.5202222989883Q859.8027954952704 420.1613748806887 844.9843558557207 420.1613748806887L844.9843558557207 420.1613748806887Q830.3261155636254 420.1613748806887 819.4592598279555 409.8552168611099L819.4592598279555 409.8552168611099Q807.8181072462551 398.2140642794095 807.6312080075581 379.4173408447373L807.6312080075581 379.4173408447373Q807.6312080075581 361.0211157787015 819.4592598279555 349.1930639583041L819.4592598279555 349.1930639583041Q830.1392163249284 338.51310746133123 844.9843558557207 338.59320713505855Q859.8027954952704 338.70000670002827 871.2570488382739 350.34115928172866L871.2570488382739 350.34115928172866L871.2570488382739 312.5875130649296Q871.2570488382739 309.5971252457772 873.2328407902139 307.6213332938372Q875.2086327421539 305.6455413418973 878.1990205613063 305.6455413418973Q881.2161082717012 305.6455413418973 883.191900223641 307.6213332938372Q885.167692175581 309.5971252457772 885.167692175581 312.5875130649296L885.167692175581 312.5875130649296L885.167692175581 412.47180620286827Q885.167692175581 415.27529478332366 883.191900223641 417.35788630023336Q881.2161082717012 419.41377792590066 878.1990205613063 419.41377792590066Q875.2086327421539 419.41377792590066 873.2328407902139 417.35788630023336Q871.2570488382739 415.27529478332366 871.2570488382739 412.47180620286827L871.2570488382739 412.47180620286827ZM871.2570488382739 395.57077504640876L871.2570488382739 363.29060653430827Q860.7372916887557 351.64945395260787 846.8533482426909 351.8363531913049L846.8533482426909 351.8363531913049Q829.2047201314433 351.8363531913049 823.757942317987 367.4023897856428L823.757942317987 367.4023897856428Q821.8889499310169 372.6622683604019 821.7020506923199 379.4173408447373L821.7020506923199 379.4173408447373Q821.7020506923199 392.5803872272563 828.8309216540492 400.26995590507676L828.8309216540492 400.26995590507676Q835.3990948996875 407.21192762810915 846.8533482426909 407.0250283894121L846.8533482426909 407.0250283894121Q860.7372916887557 407.0250283894121 871.2570488382739 395.57077504640876L871.2570488382739 395.57077504640876ZM918.7561553585606 384.4903201807994Q920.0644500294399 394.8231780916206 926.7394228400478 400.9374531861376Q933.4143956506559 407.0250283894121 945.1356479060837 407.0250283894121Q956.8569001615112 407.0250283894121 965.1338664466653 403.2603437242292L965.1338664466653 403.2603437242292Q967.7504557884236 401.95204905335 969.8330473053334 401.8719493796227Q971.8889389310007 401.765149814653 973.6778316442435 403.4472429629262Q975.4667243574866 405.15603600244185 975.4667243574866 407.21192762810915L975.4667243574866 407.21192762810915Q975.4667243574866 411.3504107706861 972.1559378434249 413.0325039189593Q968.8718512206058 414.7145970672326 966.2552618788475 416.0495916293542Q963.6386725370892 417.35788630023336 960.6215848266943 418.2923824937185L960.6215848266943 418.2923824937185Q953.679613103662 420.1613748806887 944.4681506250229 420.1613748806887L944.4681506250229 420.1613748806887Q925.511227842896 420.1613748806887 915.0982702583474 409.56151805744315Q904.685312673799 398.9616612341976 904.685312673799 379.4173408447373L904.685312673799 379.4173408447373Q904.685312673799 362.5430095795202 913.4962767838015 351.2756554752138L913.4962767838015 351.2756554752138Q923.4553362172287 338.70000670002827 941.4777628058705 338.70000670002827L941.4777628058705 338.70000670002827Q958.7525924397239 338.70000670002827 968.6849519819087 350.34115928172866L968.6849519819087 350.34115928172866Q978.0833136992449 361.20801501739857 978.0833136992449 377.548348457767L978.0833136992449 377.548348457767Q978.0833136992449 380.3785369294648 976.1075217473049 382.4344285551321Q974.1317297953649 384.4903201807994 971.1413419762125 384.4903201807994L971.1413419762125 384.4903201807994L918.7561553585606 384.4903201807994ZM941.4777628058705 350.5280585204257L941.4777628058705 350.5280585204257Q927.7807185985027 350.5280585204257 921.5863438302586 362.7299088182172L921.5863438302586 362.7299088182172Q919.3168530746518 367.02859130824874 918.7561553585606 373.036066837796L918.7561553585606 373.036066837796L964.1993702531802 373.036066837796Q963.6386725370892 362.1692111021261 956.1093032067231 355.7879370951848L956.1093032067231 355.7879370951848Q950.1018276771761 350.5280585204257 941.4777628058705 350.5280585204257ZM1031.963694226473 407.0250283894121L1031.963694226473 407.0250283894121Q1058.7970849251174 407.0250283894121 1058.9839841638143 389.1895010394674L1058.9839841638143 389.1895010394674Q1058.9839841638143 381.873730839041 1048.6778261442355 377.548348457767L1048.6778261442355 377.548348457767Q1044.1655445242645 375.6793560707968 1038.2381686684446 374.18416216122057Q1032.337492703867 372.6622683604019 1026.3300171743197 370.9801752121287Q1020.3225416447726 369.2980820638555 1014.3150661152254 367.1353908732185Q1008.3075905856781 364.9726996825815 1003.795308965707 361.5818134947926L1003.795308965707 361.5818134947926Q993.6760501848253 353.89224481697215 993.4891509461281 341.3165960417866L993.4891509461281 341.3165960417866Q993.4891509461281 327.80645107311597 1003.795308965707 319.15568631056794L1003.795308965707 319.15568631056794Q1014.8757638313164 309.78402448447423 1033.4588881360492 309.78402448447423L1033.4588881360492 309.78402448447423Q1050.3599192925087 309.78402448447423 1063.8700642611793 314.85700382053636L1063.8700642611793 314.85700382053636Q1068.1954466424534 316.35219773011255 1068.3823458811503 321.0513785887806L1068.3823458811503 321.0513785887806Q1068.3823458811503 323.2941694531449 1066.7803524066044 325.3500610788122Q1065.1783589320585 327.4326525957219 1063.229266871361 327.4326525957219Q1061.253474919421 327.4326525957219 1057.862588731632 326.3112571635398L1057.862588731632 326.3112571635398Q1047.7433299507504 322.73347173705383 1034.9540820456252 322.73347173705383L1034.9540820456252 322.73347173705383Q1023.126030225228 322.73347173705383 1015.4364615474074 327.24575335702485L1015.4364615474074 327.24575335702485Q1007.55999363089 331.94493421569297 1007.55999363089 340.19520060960446L1007.55999363089 340.19520060960446Q1007.55999363089 348.81926548091 1017.7059523030142 353.51844633957813L1017.7059523030142 353.51844633957813Q1022.3784332704398 355.5743379652454 1028.19900956129 356.9894322010943Q1034.0195858521402 358.4045264369432 1040.2139606203846 359.89972034651936Q1046.4083353886288 361.3949142560956 1052.1488120057516 363.55760544673257Q1057.862588731632 365.7202966373696 1062.5617695903002 368.92428358646146L1062.5617695903002 368.92428358646146Q1072.7077282624243 376.24005378688787 1072.8946275011215 390.3108964716496L1072.8946275011215 390.3108964716496Q1072.8946275011215 403.4472429629262 1062.187971112906 411.7242092480802L1062.187971112906 411.7242092480802Q1051.2944154859938 420.1613748806887 1033.4588881360492 420.1613748806887L1033.4588881360492 420.1613748806887Q1013.9412676378313 420.1613748806887 996.8533372426747 412.84560468026234L996.8533372426747 412.84560468026234Q995.1712440944015 412.09800772547425 993.8629494235223 410.3091150122313Q992.5279548614006 408.5202222989883 992.5279548614006 406.277431434624Q992.5279548614006 404.0346405702597 994.2367479009163 402.0588486183197Q995.9188410491896 400.0830566663798 998.0815322398266 400.0830566663798Q1000.2442234304635 400.0830566663798 1003.5283100532828 401.57825057595596Q1006.8123966761018 403.07344448553215 1014.3150661152254 405.04923643747213Q1021.8177355543487 407.0250283894121 1031.963694226473 407.0250283894121ZM1094.2812403863095 344.1467845134844L1094.2812403863095 344.1467845134844Q1107.230687638889 338.51310746133123 1121.141330976196 338.70000670002827L1121.141330976196 338.70000670002827Q1136.7073675705342 338.70000670002827 1145.3581323330823 348.25856776481896L1145.3581323330823 348.25856776481896Q1153.0477010109025 356.5355340499729 1153.2346002495997 368.92428358646146L1153.2346002495997 368.92428358646146L1153.2346002495997 412.47180620286827Q1153.2346002495997 415.27529478332366 1151.0719090589628 417.35788630023336Q1148.9092178683259 419.41377792590066 1145.9188300491733 419.41377792590066L1145.9188300491733 419.41377792590066Q1143.0886415774755 419.41377792590066 1141.0327499518085 417.35788630023336Q1138.976858326141 415.27529478332366 1138.976858326141 412.47180620286827L1138.976858326141 412.47180620286827L1138.976858326141 408.5202222989883Q1134.838375183564 412.84560468026234 1127.8964034605315 416.5034897804755Q1120.9544317374994 420.1613748806887 1110.247775349284 420.1613748806887Q1099.5411189610686 420.1613748806887 1092.4122479993393 413.96700011244445L1092.4122479993393 413.96700011244445Q1085.096477798913 407.58572610550317 1085.096477798913 397.252868194682L1085.096477798913 397.252868194682Q1085.096477798913 385.82531474292097 1093.7205426702185 379.23044160604024L1093.7205426702185 379.23044160604024Q1103.1189043875545 372.10157064431087 1120.3937340214081 372.2884698830079L1120.3937340214081 372.2884698830079L1138.976858326141 372.2884698830079L1138.976858326141 370.9801752121287Q1138.976858326141 360.6473173013075 1133.9839786638063 356.34863481127593Q1129.017798892714 352.0232524300019 1118.4980417431957 352.0232524300019L1118.4980417431957 352.0232524300019Q1109.687077633193 352.0232524300019 1098.0459250514925 355.5743379652454L1098.0459250514925 355.5743379652454Q1096.9245296193103 355.97483633388185 1095.3225361447644 355.97483633388185Q1093.7205426702185 355.97483633388185 1092.0384495219453 354.37284285933595Q1090.356356373672 352.77084938479 1090.2495568087024 349.2998635232738Q1090.169457134975 345.82887766175764 1094.2812403863095 344.1467845134844ZM1099.1673204836748 395.57077504640876L1099.1673204836748 395.57077504640876Q1099.1673204836748 407.95952458289725 1115.507653924043 407.7726253442002L1115.507653924043 407.7726253442002Q1122.6365248857724 407.7726253442002 1128.9376992189864 404.30163948268404Q1135.212173660958 400.83065362116787 1138.976858326141 396.50527123989383L1138.976858326141 396.50527123989383L1138.976858326141 383.5558239873142L1122.4496256470754 383.5558239873142Q1111.5560700201631 383.5558239873142 1105.361695251919 386.27921289404236Q1099.1673204836748 389.00260180077044 1099.1673204836748 395.57077504640876ZM1235.4702652762908 350.34115928172866L1235.4702652762908 350.34115928172866L1235.4702652762908 346.57647461654574Q1235.4702652762908 343.77298603609034 1237.4460572282308 341.6102948454534Q1239.3951492889282 339.44760365481636 1242.2253377606262 339.44760365481636L1242.2253377606262 339.44760365481636Q1245.0288263410814 339.44760365481636 1247.1915175317185 341.50349528048366Q1249.3542087223555 343.5593869061509 1249.3542087223555 346.57647461654574L1249.3542087223555 346.57647461654574L1249.3542087223555 415.27529478332366Q1249.3542087223555 434.819615172784 1239.9825468962617 445.23257275733255Q1230.5841851789255 455.64553034188106 1213.3093555450719 455.64553034188106L1213.3093555450719 455.64553034188106Q1194.9131304790362 455.64553034188106 1180.2815900781834 447.58216318666655L1180.2815900781834 447.58216318666655Q1177.6383008451826 445.9000700383933 1177.6383008451826 442.8829823279985Q1177.6383008451826 439.8925945088461 1179.4271935584256 437.91680255690613Q1181.2160862716687 435.94101060496615 1183.0850786586388 435.94101060496615Q1184.954071045609 435.94101060496615 1186.4759648464278 436.5017083210572L1186.4759648464278 436.5017083210572Q1198.117117428128 442.3222846119074 1211.8141616354958 442.3222846119074L1211.8141616354958 442.3222846119074Q1235.4702652762908 442.3222846119074 1235.4702652762908 417.35788630023336L1235.4702652762908 417.35788630023336L1235.4702652762908 407.0250283894121Q1224.5767096493785 418.6661809711125 1209.1708724024952 418.6661809711125L1209.1708724024952 418.6661809711125Q1194.5393320016424 418.6661809711125 1184.0195748521242 408.70712153768534L1184.0195748521242 408.70712153768534Q1171.8177245543325 397.43976743337896 1171.8177245543325 378.6697438899492L1171.8177245543325 378.6697438899492Q1171.8177245543325 359.7128211078224 1184.0195748521242 348.445467003516L1184.0195748521242 348.445467003516Q1194.5393320016424 338.51310746133123 1209.5713707711316 338.59320713505855Q1224.5767096493785 338.70000670002827 1235.4702652762908 350.34115928172866ZM1235.4702652762908 394.4493796142266L1235.4702652762908 362.7299088182172Q1231.1448828950167 358.21762719824613 1225.6180054078332 354.8267410104573Q1220.0644280294073 351.46255471391083 1213.3093555450719 351.46255471391083Q1206.5542830607367 351.46255471391083 1201.7750025283412 353.14464786218406Q1196.9690221047035 354.8267410104573 1193.4179365694602 358.21762719824613L1193.4179365694602 358.21762719824613Q1185.9152671303368 365.3464981599755 1185.9152671303368 378.6697438899492L1185.9152671303368 378.6697438899492Q1185.9152671303368 398.5878627568036 1201.6682029633716 404.2215398089567L1201.6682029633716 404.2215398089567Q1206.5542830607367 405.90363295722995 1213.3093555450719 405.90363295722995L1213.3093555450719 405.90363295722995Q1224.5767096493785 405.90363295722995 1235.4702652762908 394.4493796142266L1235.4702652762908 394.4493796142266ZM1282.9693717965774 384.4903201807994Q1284.2776664674566 394.8231780916206 1290.952639278065 400.9374531861376Q1297.6009121974303 407.0250283894121 1309.3488643441005 407.0250283894121Q1321.0701165995283 407.0250283894121 1329.3203829934396 403.2603437242292L1329.3203829934396 403.2603437242292Q1331.9636722264406 401.95204905335 1334.0195638521077 401.8719493796227Q1336.1021553690175 401.765149814653 1337.864348191018 403.4472429629262Q1339.653240904261 405.15603600244185 1339.653240904261 407.21192762810915L1339.653240904261 407.21192762810915Q1339.653240904261 411.3504107706861 1336.3691542814418 413.0325039189593Q1333.0850676586226 414.7145970672326 1330.4684783168643 416.0495916293542Q1327.8251890838637 417.35788630023336 1324.8348012647111 418.2923824937185L1324.8348012647111 418.2923824937185Q1317.8928295416786 420.1613748806887 1308.6813670630397 420.1613748806887L1308.6813670630397 420.1613748806887Q1289.7244442809128 420.1613748806887 1279.3114866963642 409.56151805744315Q1268.8718292205733 398.9616612341976 1268.8718292205733 379.4173408447373L1268.8718292205733 379.4173408447373Q1268.8718292205733 362.5430095795202 1277.7094932218183 351.2756554752138L1277.7094932218183 351.2756554752138Q1287.6685526552455 338.70000670002827 1305.6909792438873 338.70000670002827L1305.6909792438873 338.70000670002827Q1322.9391089864985 338.70000670002827 1332.8981684199257 350.34115928172866L1332.8981684199257 350.34115928172866Q1342.2965301372617 361.20801501739857 1342.2965301372617 377.548348457767L1342.2965301372617 377.548348457767Q1342.2965301372617 380.3785369294648 1340.3207381853217 382.4344285551321Q1338.3449462333817 384.4903201807994 1335.3278585229868 384.4903201807994L1335.3278585229868 384.4903201807994L1282.9693717965774 384.4903201807994ZM1305.6909792438873 350.5280585204257L1305.6909792438873 350.5280585204257Q1291.967235145277 350.5280585204257 1285.7728603770329 362.7299088182172L1285.7728603770329 362.7299088182172Q1283.5300695126684 367.02859130824874 1282.9693717965774 373.036066837796L1282.9693717965774 373.036066837796L1328.3858867999547 373.036066837796Q1327.8251890838637 362.1692111021261 1320.3225196447402 355.7879370951848L1320.3225196447402 355.7879370951848Q1314.315044115193 350.5280585204257 1305.6909792438873 350.5280585204257Z " fill="#013dc4" transform="matrix(0.6518678656197312,0,0,0.6518678656197312,0,51.869403685314865)"/></g></svg>